<?xml version="1.0" standalone="no"?>
<!DOCTYPE svg PUBLIC "-//W3C//DTD SVG 20010904//EN"
 "http://www.w3.org/TR/2001/REC-SVG-20010904/DTD/svg10.dtd">
<svg version="1.0" xmlns="http://www.w3.org/2000/svg"
 width="512.000000pt" height="512.000000pt" viewBox="0 0 512.000000 512.000000"
 preserveAspectRatio="xMidYMid meet">

<g transform="translate(0.000000,512.000000) scale(0.100000,-0.100000)"
fill="#000000" stroke="none">
<path d="M2425 5114 c-364 -28 -681 -112 -990 -263 -617 -302 -1066 -814
-1297 -1480 -90 -258 -132 -523 -131 -821 2 -411 86 -761 274 -1140 276 -554
751 -989 1334 -1223 597 -239 1293 -239 1890 0 391 157 744 412 1010 730 141
169 224 296 326 499 185 367 269 726 269 1143 0 418 -80 762 -265 1137 -375
761 -1105 1281 -1960 1398 -114 15 -372 27 -460 20z m175 -1146 c69 -39 242
-140 385 -223 259 -151 318 -185 386 -223 71 -39 207 -117 322 -185 l117 -68
0 -370 c0 -246 -3 -369 -10 -369 -10 0 -111 50 -140 69 -13 9 -16 57 -20 293
l-5 283 -275 159 c-151 87 -333 192 -405 233 -71 41 -166 96 -210 122 -138 82
-281 161 -291 161 -5 0 -41 -19 -79 -41 -105 -62 -363 -211 -718 -415 -175
-101 -325 -188 -333 -195 -10 -8 -11 -15 -4 -24 9 -11 145 -95 154 -95 3 0 60
-33 128 -73 68 -40 237 -138 376 -217 139 -80 267 -153 285 -164 17 -10 93
-53 167 -96 74 -43 277 -160 450 -260 173 -101 453 -262 622 -359 169 -97 310
-181 313 -188 6 -16 -7 -24 -360 -226 -159 -91 -344 -196 -410 -234 -66 -38
-133 -76 -150 -85 -62 -31 -100 -53 -106 -61 -3 -5 -17 -5 -31 -2 -15 4 -29 2
-32 -4 -4 -6 -2 -11 5 -11 6 0 0 -9 -14 -20 -33 -26 -40 -25 -35 5 3 14 2 25
-2 25 -8 0 -23 -39 -21 -53 1 -5 -3 -5 -10 -2 -6 4 -9 24 -6 46 2 21 0 39 -4
39 -5 0 -9 7 -9 15 0 9 -9 15 -22 15 l-23 0 25 -19 c20 -16 22 -21 11 -35 -8
-10 -9 -16 -3 -16 6 0 10 -9 9 -20 -1 -13 -8 -20 -22 -20 -12 0 -26 -5 -31
-10 -13 -13 -46 -2 -41 14 2 6 11 11 20 11 36 0 53 51 25 76 -14 13 -15 19 -6
26 13 10 106 65 338 198 69 39 148 85 175 102 28 16 127 74 220 128 94 54 173
103 177 109 12 19 17 16 -252 171 -69 40 -147 84 -175 100 -61 33 -41 22 -530
300 -220 125 -452 258 -515 295 -63 38 -171 100 -240 138 -69 38 -160 91 -203
116 -43 25 -79 46 -82 46 -3 0 -316 178 -358 204 -15 9 -17 23 -15 100 l3 90
85 49 c47 28 184 107 305 177 121 70 276 160 345 200 69 40 199 115 290 168
91 52 194 112 230 133 36 21 74 38 85 38 10 1 76 -31 145 -71z m166 -559 c617
-354 622 -357 610 -377 -3 -6 -86 -57 -183 -113 l-177 -103 -60 34 c-34 18
-149 86 -257 150 -255 153 -235 143 -261 129 -13 -6 -117 -66 -231 -132 -195
-112 -210 -119 -235 -108 -79 36 -342 194 -342 206 0 14 86 67 385 237 83 47
213 122 290 167 77 45 145 81 151 81 6 0 146 -77 310 -171z m-1053 -776 c92
-52 168 -96 169 -97 1 0 4 -86 7 -190 l6 -190 150 -88 c230 -135 400 -228 416
-228 8 0 77 36 154 80 77 44 146 80 154 80 14 0 176 -88 296 -161 33 -20 61
-42 63 -50 2 -13 -92 -71 -516 -316 -79 -46 -148 -83 -154 -83 -14 0 -103 50
-268 148 -69 41 -246 144 -395 230 -148 85 -276 159 -282 164 -10 8 -13 101
-13 403 0 215 3 395 7 399 10 10 22 4 206 -101z m-580 -181 c-6 -4 -13 -25
-16 -47 -4 -40 -4 -40 -5 8 -2 39 1 47 16 47 11 0 13 -3 5 -8z m53 -29 c-6 -6
-36 9 -36 18 0 5 9 4 20 -3 10 -7 18 -14 16 -15z m-21 -13 c3 -5 1 -10 -4 -10
-6 0 -11 5 -11 10 0 6 2 10 4 10 3 0 8 -4 11 -10z m55 -7 c-1 -18 -18 -35 -24
-24 -4 6 -4 16 -1 21 7 12 25 13 25 3z m47 -200 c-2 -32 -3 -6 -3 57 0 63 1
89 3 58 2 -32 2 -84 0 -115z m7 -399 c3 -8 2 -12 -4 -9 -6 3 -10 10 -10 16 0
14 7 11 14 -7z m941 -554 c3 -5 1 -10 -4 -10 -6 0 -11 5 -11 10 0 6 2 10 4 10
3 0 8 -4 11 -10z m343 -106 c22 -6 32 -44 12 -44 -5 0 -10 7 -10 15 0 9 -6 12
-17 8 -11 -4 -14 -3 -9 5 11 19 -9 14 -38 -9 -16 -13 -33 -18 -44 -14 -13 5
-8 10 21 20 21 7 41 16 44 19 8 7 12 7 41 0z"/>
<path d="M2652 1206 c-32 -23 -32 -24 -10 -29 23 -6 41 10 31 27 -4 5 1 7 10
3 11 -4 14 -2 10 9 -3 7 -6 14 -7 14 0 -1 -16 -11 -34 -24z"/>
</g>
</svg>
